HIERARCHY
ROOT ROOT
{
	OFFSET 0.000000 56.020000 -5.659234
	CHANNELS 6 Xposition Yposition Zposition Xrotation Yrotation Zrotation 
	JOINT C_spine0001_bind_JNT
	{
		OFFSET 0.000000 1.618999 0.000000
		CHANNELS 3 Xrotation Yrotation Zrotation
		JOINT C_spine0002_bind_JNT
		{
			OFFSET 0.000000 4.942001 0.000001
			CHANNELS 3 Xrotation Yrotation Zrotation
			JOINT C_spine0003_bind_JNT
			{
				OFFSET 0.000000 4.942001 -0.000000
				CHANNELS 3 Xrotation Yrotation Zrotation
				JOINT C_neck0001_bind_JNT
				{
					OFFSET 0.000000 17.026009 -0.000000
					CHANNELS 3 Xrotation Yrotation Zrotation
					JOINT C_neck0002_bind_JNT
					{
						OFFSET 0.000000 3.249985 0.000000
						CHANNELS 3 Xrotation Yrotation Zrotation
						JOINT C_head_bind_JNT
						{
							OFFSET 0.000000 5.278008 0.000000
							CHANNELS 3 Xrotation Yrotation Zrotation
							End Site
							{
								OFFSET 0.000000 0.000000 0.000000
							}
						}
					}
				}
				JOINT L_clavicle_bind_JNT
				{
					OFFSET 4.590000 12.067001 0.834000
					CHANNELS 3 Xrotation Yrotation Zrotation
					JOINT L_armUpper0001_bind_JNT
					{
						OFFSET 7.812635 0.512001 -3.452945
						CHANNELS 3 Xrotation Yrotation Zrotation
						JOINT L_armLower0001_bind_JNT
						{
							OFFSET 15.265892 -6.552116 -0.058157
							CHANNELS 3 Xrotation Yrotation Zrotation
							JOINT L_hand0001_bind_JNT
							{
								OFFSET 14.747667 -6.369995 5.049225
								CHANNELS 3 Xrotation Yrotation Zrotation
								End Site
								{
									OFFSET 0.000000 0.000000 0.000000
								}
							}
						}
					}
				}
				JOINT R_clavicle_bind_JNT
				{
					OFFSET -4.590000 12.067001 0.834000
					CHANNELS 3 Xrotation Yrotation Zrotation
					JOINT R_armUpper0001_bind_JNT
					{
						OFFSET -7.812635 0.512001 -3.452945
						CHANNELS 3 Xrotation Yrotation Zrotation
						JOINT R_armLower0001_bind_JNT
						{
							OFFSET -15.265890 -6.552124 -0.058160
							CHANNELS 3 Xrotation Yrotation Zrotation
							JOINT R_hand0001_bind_JNT
							{
								OFFSET -14.746784 -6.369629 5.048937
								CHANNELS 3 Xrotation Yrotation Zrotation
								End Site
								{
									OFFSET 0.000000 0.000000 0.000000
								}
							}
						}
					}
				}
			}
		}
	}
	JOINT C_pelvis0001_bind_JNT
	{
		OFFSET -0.000000 0.000000 0.000000
		CHANNELS 3 Xrotation Yrotation Zrotation
		JOINT L_legUpper0001_bind_JNT
		{
			OFFSET 6.599999 -6.027000 0.539000
			CHANNELS 3 Xrotation Yrotation Zrotation
			JOINT L_legLower0001_bind_JNT
			{
				OFFSET -0.140713 -19.187443 0.040261
				CHANNELS 3 Xrotation Yrotation Zrotation
				JOINT L_foot0001_bind_JNT
				{
					OFFSET -0.132215 -18.028637 -1.138370
					CHANNELS 3 Xrotation Yrotation Zrotation
					JOINT L_foot0002_bind_JNT
					{
						OFFSET 0.007014 -4.693133 9.886524
						CHANNELS 3 Xrotation Yrotation Zrotation
						End Site
						{
							OFFSET 0.000000 0.000000 0.000000
						}
					}
				}
			}
		}
		JOINT R_legUpper0001_bind_JNT
		{
			OFFSET -6.599999 -6.027000 0.539000
			CHANNELS 3 Xrotation Yrotation Zrotation
			JOINT R_legLower0001_bind_JNT
			{
				OFFSET 0.140710 -19.187164 0.040550
				CHANNELS 3 Xrotation Yrotation Zrotation
				JOINT R_foot0001_bind_JNT
				{
					OFFSET 0.132215 -18.028633 -1.138362
					CHANNELS 3 Xrotation Yrotation Zrotation
					JOINT R_foot0002_bind_JNT
					{
						OFFSET -0.007014 -4.693128 9.886505
						CHANNELS 3 Xrotation Yrotation Zrotation
						End Site
						{
							OFFSET 0.000000 0.000000 0.000000
						}
					}
				}
			}
		}
	}
}
MOTION
Frames: 12
Frame Time: 0.033333
18.428869 48.290462 21.116316 0.045661 14.850850 -0.037247 4.126490 -18.265829 -0.794661 -4.807498 -1.037771 0.368462 2.933186 -0.492193 0.002673 15.649757 -5.610581 1.209578 0.034848 -0.035627 -0.513551 -6.344738 -10.554649 0.305109 1.280923 1.760427 5.930617 -14.771775 3.682774 -68.443916 -5.603575 -2.935955 -10.988901 3.892287 -13.989779 -12.623514 1.162501 1.296043 -7.759433 -3.091574 -18.733091 68.665482 4.517207 -4.162101 5.622698 4.155191 13.745193 14.787528 7.531028 -17.411039 -1.564675 -5.872873 -0.456900 0.330174 19.852083 -2.843971 -0.762578 -14.962222 -2.258785 1.870230 -5.912667 -0.542143 1.503689 -22.328306 -10.260230 -22.458799 31.887802 2.918593 -5.826799 10.560734 23.397516 3.550086 -9.607148 4.368546 2.243783 
18.355330 48.414471 21.594122 0.049680 15.305215 -0.026549 3.783280 -16.774179 -1.013968 -4.870437 -1.147801 0.329190 2.860731 -0.774119 -0.388567 15.500495 -5.686667 1.278710 0.169319 -0.097017 -0.432978 -6.255184 -10.671573 0.781572 0.630212 1.660880 5.454531 -15.147981 3.989204 -67.683655 -6.200366 -6.142331 -13.050182 4.434063 -14.725568 -11.454683 0.395352 1.738512 -6.961082 -2.219604 -18.980894 67.450645 4.836401 -3.075309 6.675508 4.846077 13.515991 14.918165 7.188618 -15.841666 -1.923603 -4.459553 -1.279598 0.168089 18.432913 -3.282468 -0.314154 -14.447100 -2.528747 1.856555 -5.948322 -0.567273 1.241786 -22.008648 -9.459309 -21.724949 30.640387 3.288167 -4.058877 10.809852 24.163673 4.318670 -7.869465 4.782113 0.710892 
18.284281 48.570900 22.281727 0.035624 15.677014 -0.037111 3.251235 -15.553592 -1.075731 -4.994533 -1.216394 0.269637 2.619414 -0.719316 -0.387311 15.940008 -5.774314 1.348597 -0.139026 -0.087491 -0.542342 -5.807263 -10.685830 1.022325 0.226356 1.338375 4.738205 -15.418538 4.035915 -66.946434 -6.362994 -9.295134 -14.953223 3.559690 -15.887898 -10.603456 0.124060 1.676503 -6.146906 -1.869462 -18.767075 65.731949 5.440552 -1.414669 7.835122 5.409381 12.998154 14.945624 7.160900 -14.625763 -2.300513 -4.157014 -1.690958 0.731347 17.839128 -3.645668 -0.227935 -13.882145 -2.989871 1.729852 -6.054239 -0.413895 1.250731 -20.610138 -9.396955 -20.147516 27.131554 3.436205 -3.224310 10.373565 24.869675 5.684691 -7.603528 4.648461 0.261509 
18.177082 48.667889 22.882513 0.059007 15.535350 -0.051397 2.753550 -13.927822 -1.170021 -4.979518 -1.336833 0.292060 2.299219 -0.878229 -0.289365 15.790333 -5.633900 1.236871 -0.172602 -0.020428 -0.573089 -5.537530 -10.514834 1.525663 -0.192795 1.355329 3.989046 -15.234799 4.140313 -66.767311 -6.168720 -12.831134 -15.503058 3.044825 -16.827431 -9.631869 -0.155124 2.074867 -5.639581 -1.735736 -18.454437 64.633423 5.276780 -0.260922 8.772942 6.294322 12.313005 15.003137 7.147975 -12.863924 -2.753941 -4.080739 -2.337462 1.509537 18.456804 -3.979731 0.299153 -13.017988 -3.555402 1.135369 -7.393508 -0.275912 0.985963 -19.427568 -9.331043 -18.606028 22.117702 3.108846 -2.923467 10.834882 25.744225 7.920289 -9.636113 4.601516 0.162061 
17.828766 48.670952 23.870424 0.045463 16.043619 -0.047698 2.013853 -13.027806 -1.006576 -5.019355 -1.296813 0.423037 2.104531 -0.714303 -0.305357 15.888392 -5.797853 1.048711 0.024628 -0.288873 -0.533529 -5.545574 -10.352043 1.616839 0.016101 1.299956 3.578140 -14.900653 4.353709 -66.478218 -5.551381 -15.667866 -16.032198 2.347156 -17.796085 -9.506634 -0.346188 1.698698 -5.254274 -1.233276 -18.062933 63.452374 5.425076 0.658723 9.698020 6.675384 12.056999 14.938407 7.219133 -11.837516 -2.471318 -4.121697 -3.070915 1.994416 20.172382 -4.348932 0.713247 -12.705321 -4.309431 0.261708 -9.655203 -0.270417 1.051523 -17.452147 -9.006465 -17.016142 17.294502 3.100959 -2.761842 9.399027 26.019766 10.033022 -13.373157 4.534501 0.600385 
17.735703 48.454220 24.979845 0.037005 15.811934 -0.036566 1.396625 -11.559291 -0.973537 -4.942472 -1.307794 0.282158 1.969683 -0.592280 0.254743 15.800645 -5.746128 0.795718 -0.112637 -0.127018 -0.484730 -5.567915 -10.353409 1.560833 0.348546 1.814929 3.559950 -14.345530 4.049489 -66.460609 -5.227622 -17.955658 -16.660261 2.457130 -17.760008 -9.245948 -0.025222 1.583469 -5.582244 -0.922485 -17.730692 63.055332 4.475609 1.420266 10.522153 6.916105 12.172857 14.988921 6.996200 -10.250953 -2.083688 -5.898792 -3.263988 1.581528 24.959929 -4.151071 1.096319 -11.913264 -5.901338 -1.062800 -13.889204 -1.304010 3.184117 -16.061506 -8.367823 -16.232283 15.156250 3.283068 -2.865492 7.077112 25.716555 11.761702 -15.919587 3.937775 0.843375 
17.536293 48.119141 26.255726 0.031669 15.999429 -0.036335 0.949212 -10.949924 -0.926366 -5.062319 -0.915217 0.653441 1.997755 -0.630357 0.515404 15.577312 -5.593591 0.506990 0.025708 -0.225712 -0.445821 -5.960944 -10.331237 1.338775 1.062141 2.457934 4.095919 -14.138205 4.203448 -67.232605 -3.714144 -18.902126 -16.202333 2.263736 -17.366743 -9.382391 0.231104 1.656869 -5.861280 -1.090500 -17.701963 63.246372 3.726762 1.299365 10.462516 6.005263 12.243835 14.897592 6.825018 -9.584363 -1.208655 -8.683684 -3.501256 1.222603 31.888800 -3.549453 1.080096 -10.527663 -7.463878 -2.030890 -19.287622 -1.580948 4.150297 -14.121073 -7.343131 -15.951831 14.671183 3.457770 -2.550896 3.514397 23.637459 11.656482 -15.798185 2.793299 1.328149 
17.454100 47.862103 27.522402 0.029885 16.279936 -0.015560 0.382464 -10.953382 -0.769799 -4.939538 -0.715565 0.583143 2.061673 -0.141963 1.081409 15.269642 -5.644822 0.238888 -0.174704 -0.207276 -0.220574 -6.552216 -9.995456 0.584428 1.469475 2.305798 4.461296 -13.197224 4.952277 -68.153358 -2.121463 -17.882143 -14.730441 2.313886 -16.595581 -9.269489 0.521034 1.433646 -6.379807 -2.015993 -16.950495 63.663288 2.979054 0.269631 10.112926 5.785880 12.983612 14.394765 6.386836 -9.943421 -1.152048 -12.214957 -2.807092 1.323946 39.428738 -2.472536 0.725555 -6.839935 -8.964507 -3.481279 -23.444424 -2.987822 6.270758 -11.476422 -7.643066 -15.055997 14.888803 3.088091 -2.424924 0.106189 22.389421 11.269952 -14.422958 2.587610 1.223819 
17.439093 47.776634 28.673712 0.026527 16.033806 -0.030913 0.548217 -10.752054 -0.443155 -5.019258 -0.309291 0.795291 2.193625 0.276562 1.403606 14.825153 -5.878308 0.400277 -0.055478 -0.099438 -0.618012 -7.173079 -10.209646 0.522769 1.695406 1.846956 5.099520 -12.362665 5.374433 -69.507629 -0.286084 -14.595811 -11.872499 1.900141 -15.851297 -9.884254 0.851702 1.503345 -6.861407 -3.947677 -16.551821 64.216713 2.174832 -1.476485 9.107903 5.398194 13.423095 14.189440 6.347578 -10.137664 -1.513659 -15.812433 -1.591003 2.532606 45.866585 -1.661727 0.212512 -4.132626 -10.259307 -5.530551 -23.222120 -2.878223 7.756623 -9.133799 -7.841969 -14.355881 14.911994 3.008819 -2.187130 -2.777001 21.804165 11.068964 -13.554832 2.338206 1.152387 
17.559364 47.740986 29.769903 0.034034 16.033291 -0.032440 0.902936 -10.784114 0.111482 -5.198768 -0.002135 0.936167 2.327190 0.411709 1.594615 14.742449 -6.096754 0.287527 -0.365177 -0.240865 -0.205161 -7.909647 -11.050121 0.317817 2.043562 1.238102 5.377663 -11.703072 5.896630 -70.074913 0.598774 -10.835000 -9.417651 1.549723 -15.367186 -10.559295 0.971282 1.476328 -7.034578 -6.283866 -15.725403 64.152428 1.446908 -2.863974 8.472468 4.400566 13.855598 13.601305 6.280982 -10.709367 -1.666656 -19.160250 -0.232692 3.121734 50.571049 -1.433878 0.293556 -3.960457 -10.245338 -6.810676 -19.199455 -2.392541 7.361120 -5.932013 -7.819381 -14.043057 13.161631 2.959495 -1.885786 -4.567862 21.182165 11.072979 -12.794220 2.315809 1.274502 
17.815744 47.770309 30.606428 0.035324 16.473112 -0.051483 1.280638 -11.484497 0.498129 -4.789180 0.383371 1.053464 2.267895 0.547820 2.031009 14.486423 -6.654990 0.261416 -0.359530 -0.455486 -0.153251 -8.616090 -11.675669 0.312063 2.149791 0.667403 5.455025 -11.012170 6.172791 -70.599068 1.071071 -6.723970 -7.291327 1.094769 -15.306371 -11.485293 0.646580 1.447413 -6.979480 -7.931935 -14.852167 64.048546 -0.047707 -3.701783 7.716348 4.094307 13.948088 13.282065 6.216156 -11.794703 -1.395636 -22.680103 1.743303 3.833431 53.105495 -1.367758 -0.204013 -4.998386 -10.156025 -7.629319 -15.084128 -2.081232 6.664681 -3.227104 -7.360363 -14.403183 10.889582 2.750927 -1.363425 -4.628038 20.629126 10.982216 -12.776727 2.053272 1.449791 
18.113348 47.968674 31.459959 0.026762 16.903679 -0.038141 2.114778 -12.263185 0.721125 -5.149275 0.488818 1.174077 2.674391 0.751973 1.920831 14.366018 -7.048656 0.967760 -0.422573 -0.132227 -0.387711 -8.891373 -12.492692 0.453626 1.976588 -0.047221 6.034843 -9.951671 6.860091 -70.582428 0.962352 -3.791393 -6.099799 0.756390 -14.654753 -12.528166 0.416313 1.111598 -6.647884 -9.471489 -14.331528 63.781322 -0.559946 -3.656757 7.670121 3.183478 14.008024 13.157846 6.506117 -12.936765 -0.875992 -26.339867 3.021799 4.206628 54.214031 -1.069077 -1.168723 -7.330572 -8.771980 -7.626095 -11.713408 -1.850069 5.404661 -1.117458 -7.502290 -15.480155 7.442786 2.620792 -0.649212 -2.950982 20.826130 11.377036 -13.522498 2.239087 1.330100 
